<?xml version="1.0" encoding="UTF-8"?>
<svg id="Calque_1" xmlns="http://www.w3.org/2000/svg" version="1.1" viewBox="0 0 99.4 99.2">
  <!-- Generator: Adobe Illustrator 29.3.1, SVG Export Plug-In . SVG Version: 2.1.0 Build 151)  -->
  <path d="M30.9,8.3c.2-.1.5-.3.8-.4,0-.2,0-.3-.1-.4-1-2-2-4.1-2.9-6.2-.2-.3,0-.8,0-1.2.4.2.8.3,1,.6,1.3,1.8,2.6,3.5,3.8,5.4.6.9,1.1,1.1,2.1.8,15-3.3,28.7-.2,40,10.2,13,11.9,17,26.9,12.9,44-.2.9,0,1.4.5,2,3.3,3.4,6.5,6.8,9.7,10.3.3.3.4.9.5,1.3-.5,0-1,.2-1.5,0-13.7-4.1-25.2-11.6-34.6-22.3-8.9-10-17.3-20.3-24.3-31.8-2.5-4.1-5.3-8.1-8.1-12.3h0ZM46.4,22.2c8.3,9.5,16.9,18.5,27,26.1-.4-14.7-13.2-26.2-27-26.1Z"/>
  <path d="M0,14c.5-.2.8-.3,1-.4,2.3,4.6,4.5,9.1,6.7,13.6,2.4-3.1,4.7-6,7.2-9.2.3.6.5.9.6,1.2,2.4,4.8,4.7,9.7,7.1,14.5.3.6.4,1,0,1.6-1.8,2.9-3,6.1-3.6,9.4-.2.9,0,1.6.5,2.3,4.8,7.2,9.9,14.2,15.8,20.6,2.3,2.5,4.4,5.2,6.6,7.9.6.8,1.3,1.1,2.3,1.2,3,.1,5.9-.1,8.8-.8.4,0,1,0,1.3.3,4.5,3.9,9.5,7.3,14.8,10.1.1,0,.2.2.5.3-4.8,3-9.8,4.9-15.3,6,1.1,1.8,2.2,3.5,3.2,5.3.2.4.1.9.2,1.3-.4,0-.9,0-1.2-.2-12.6-6.2-22.5-15.3-30.1-27.2-8.9-13.9-16.7-28.4-22-44.1C2.8,23.3,1.4,18.6,0,14h0Z"/>
  <path d="M66.2,68.1c1-1.3,1.9-2.3,2.6-3.3,4.4,3.2,8.9,6.5,13.5,9.9-1.6,1.9-3.3,3.9-5.1,6.1.4.6,1,1.3,1.5,2,.2.2.2.7,0,.9-.2.2-.6.3-.9.2-.7-.2-1.4-.6-2.1-.8-.5-.1-1,0-1.4-.1-1.1-.6-2.1-1.3-3.2-1.9-10.7-5.2-19.6-12.5-26.9-21.8-8.6-11-16.7-22.3-23-34.7-1.3-2.5-2.8-4.9-3.9-7.5-1.7-3.9-3.1-7.9-4.7-11.9.7-.7,1-.3,1.4.3,1.6,2.6,3.2,5.2,4.9,7.8.2.4.5.7.6.9,3.2-1.8,6.4-3.6,9.6-5.4,2.7,5.1,5.2,10,7.8,14.8-2.5,1.4-5.1,2.8-7.9,4.4,2.6,3.2,5,6.2,7.3,9.1,6.1,7.6,13.2,14.3,20.3,20.9,3.1,2.8,5.8,6,8.7,9,.3.3.5.7.9,1.2h0Z"/>
  <path d="M4.4,35.2c2.4,5.6,4.6,11.3,7.2,16.8,5.2,11.1,11.4,21.8,18.5,31.7,2,2.7,4.4,5.1,6.7,7.7.3.3.7.6,1,1C12.3,88.2-4.8,60.7,4.4,35.2Z"/>
</svg>