<?xml version="1.0" encoding="UTF-8"?>
<svg id="Calque_1" data-name="Calque 1" xmlns="http://www.w3.org/2000/svg" viewBox="0 0 99.4 99.23">
  <defs>
    <style>
      .cls-1, .cls-2 {
        stroke-width: 0px;
      }

      .cls-2 {
        fill: #fff;
      }
    </style>
  </defs>
  <path class="cls-1" d="m30.94,8.26c.22-.12.49-.26.81-.43-.03-.16-.03-.32-.1-.45-.97-2.05-1.97-4.09-2.91-6.16-.16-.34-.04-.81-.06-1.22.36.2.83.31,1.05.61,1.3,1.76,2.6,3.54,3.79,5.38.56.87,1.11,1.05,2.13.83,15.04-3.29,28.66-.25,40.03,10.2,13,11.93,17.04,26.85,12.95,43.97-.21.87-.05,1.36.54,1.98,3.26,3.39,6.48,6.82,9.68,10.27.3.32.36.86.54,1.3-.5.04-1.04.23-1.48.1-13.67-4.12-25.15-11.64-34.62-22.29-8.9-10-17.31-20.35-24.3-31.8-2.53-4.14-5.32-8.13-8.06-12.28Zm15.44,13.94c8.34,9.53,16.9,18.48,26.96,26.06-.42-14.68-13.16-26.22-26.96-26.06Z"/>
  <path class="cls-1" d="m0,13.99c.48-.18.76-.28,1.03-.38,2.26,4.57,4.48,9.07,6.71,13.57,2.41-3.07,4.74-6.05,7.25-9.25.34.64.5.93.65,1.23,2.35,4.83,4.69,9.67,7.07,14.5.29.58.4,1,.01,1.62-1.81,2.91-2.96,6.07-3.59,9.44-.16.88-.06,1.59.45,2.35,4.81,7.21,9.9,14.19,15.75,20.61,2.31,2.53,4.44,5.23,6.56,7.92.64.81,1.32,1.13,2.31,1.17,2.97.12,5.89-.11,8.78-.83.38-.1.97.02,1.27.28,4.55,3.92,9.48,7.29,14.81,10.07.13.07.24.17.48.34-4.75,3.02-9.81,4.9-15.28,6.01,1.11,1.8,2.2,3.51,3.21,5.26.21.36.11.89.15,1.34-.42-.05-.89.02-1.25-.16-12.57-6.23-22.54-15.35-30.06-27.17-8.86-13.93-16.67-28.39-21.97-44.09-1.54-4.56-2.9-9.17-4.37-13.82Z"/>
  <path class="cls-1" d="m66.2,68.05c1.03-1.29,1.86-2.35,2.62-3.3,4.44,3.25,8.89,6.5,13.52,9.89-1.58,1.9-3.28,3.93-5.06,6.06.45.61,1,1.29,1.47,2.01.15.23.21.72.07.89-.16.19-.63.28-.9.2-.73-.2-1.41-.56-2.13-.77-.47-.13-.99-.1-1.38-.13-1.09-.63-2.13-1.33-3.24-1.88-10.65-5.2-19.59-12.46-26.91-21.79-8.6-10.97-16.66-22.29-23.04-34.73-1.29-2.51-2.82-4.92-3.94-7.5-1.7-3.91-3.15-7.93-4.7-11.89.66-.74.99-.35,1.36.26,1.6,2.62,3.23,5.22,4.86,7.82.23.37.49.72.65.95,3.25-1.84,6.42-3.64,9.61-5.44,2.69,5.12,5.25,9.97,7.77,14.77-2.5,1.39-5.09,2.82-7.86,4.36,2.59,3.22,4.96,6.16,7.34,9.1,6.13,7.6,13.16,14.31,20.31,20.93,3.07,2.84,5.84,6,8.73,9.02.3.31.52.7.87,1.17Z"/>
  <path class="cls-1" d="m4.44,35.17c2.37,5.58,4.6,11.29,7.2,16.83,5.22,11.13,11.36,21.75,18.54,31.73,1.97,2.73,4.43,5.12,6.68,7.65.31.35.73.6,1.01.98C12.27,88.21-4.75,60.66,4.44,35.17Z"/>
  <path class="cls-2" d="m46.38,22.2c13.8-.17,26.54,11.38,26.96,26.06-10.06-7.58-18.62-16.52-26.96-26.06Z"/>
</svg>